<svg viewBox="0 0 581 76" xmlns="http://www.w3.org/2000/svg">
        <g filter="url(#filter0_b_605_10)">
        <mask id="path-1-outside-1_605_10" >
        <path d="M20.1685 74L0.191187 4.18182H16.3162L27.873 52.6932H28.4526L41.2026 4.18182H55.0094L67.7253 52.7955H68.3389L79.8957 4.18182H96.0207L76.0435 74H61.6571L48.3616 28.3523H47.8162L34.5548 74H20.1685ZM119.007 75.0227C113.621 75.0227 108.984 73.9318 105.098 71.75C101.234 69.5455 98.2572 66.4318 96.1663 62.4091C94.0754 58.3636 93.0299 53.5795 93.0299 48.0568C93.0299 42.6705 94.0754 37.9432 96.1663 33.875C98.2572 29.8068 101.2 26.6364 104.996 24.3636C108.814 22.0909 113.291 20.9545 118.428 20.9545C121.882 20.9545 125.098 21.5114 128.075 22.625C131.075 23.7159 133.689 25.3636 135.916 27.5682C138.166 29.7727 139.916 32.5455 141.166 35.8864C142.416 39.2045 143.041 43.0909 143.041 47.5455V51.5341H98.8254V42.5341H129.371C129.371 40.4432 128.916 38.5909 128.007 36.9773C127.098 35.3636 125.837 34.1023 124.223 33.1932C122.632 32.2614 120.78 31.7955 118.666 31.7955C116.462 31.7955 114.507 32.3068 112.803 33.3295C111.121 34.3295 109.803 35.6818 108.848 37.3864C107.894 39.0682 107.405 40.9432 107.382 43.0114V51.5682C107.382 54.1591 107.859 56.3977 108.814 58.2841C109.791 60.1705 111.166 61.625 112.939 62.6477C114.712 63.6705 116.814 64.1818 119.246 64.1818C120.859 64.1818 122.337 63.9545 123.678 63.5C125.019 63.0455 126.166 62.3636 127.121 61.4545C128.075 60.5455 128.803 59.4318 129.303 58.1136L142.734 59C142.053 62.2273 140.655 65.0455 138.541 67.4545C136.45 69.8409 133.746 71.7045 130.428 73.0455C127.132 74.3636 123.325 75.0227 119.007 75.0227ZM149.911 74V4.18182H164.434V30.4318H164.877C165.514 29.0227 166.434 27.5909 167.639 26.1364C168.866 24.6591 170.457 23.4318 172.411 22.4545C174.389 21.4545 176.843 20.9545 179.775 20.9545C183.593 20.9545 187.116 21.9545 190.343 23.9545C193.57 25.9318 196.15 28.9205 198.082 32.9205C200.014 36.8977 200.979 41.8864 200.979 47.8864C200.979 53.7273 200.036 58.6591 198.15 62.6818C196.286 66.6818 193.741 69.7159 190.514 71.7841C187.309 73.8295 183.718 74.8523 179.741 74.8523C176.923 74.8523 174.525 74.3864 172.548 73.4545C170.593 72.5227 168.991 71.3523 167.741 69.9432C166.491 68.5114 165.536 67.0682 164.877 65.6136H164.229V74H149.911ZM164.127 47.8182C164.127 50.9318 164.559 53.6477 165.423 55.9659C166.286 58.2841 167.536 60.0909 169.173 61.3864C170.809 62.6591 172.798 63.2955 175.139 63.2955C177.502 63.2955 179.502 62.6477 181.139 61.3523C182.775 60.0341 184.014 58.2159 184.854 55.8977C185.718 53.5568 186.15 50.8636 186.15 47.8182C186.15 44.7955 185.729 42.1364 184.889 39.8409C184.048 37.5455 182.809 35.75 181.173 34.4545C179.536 33.1591 177.525 32.5114 175.139 32.5114C172.775 32.5114 170.775 33.1364 169.139 34.3864C167.525 35.6364 166.286 37.4091 165.423 39.7045C164.559 42 164.127 44.7045 164.127 47.8182ZM227.401 4.18182H245.606L264.833 51.0909H265.651L284.879 4.18182H303.083V74H288.765V28.5568H288.185L270.117 73.6591H260.367L242.299 28.3864H241.719V74H227.401V4.18182ZM327.024 74.9886C323.683 74.9886 320.706 74.4091 318.092 73.25C315.479 72.0682 313.411 70.3295 311.888 68.0341C310.388 65.7159 309.638 62.8295 309.638 59.375C309.638 56.4659 310.172 54.0227 311.24 52.0455C312.308 50.0682 313.763 48.4773 315.604 47.2727C317.445 46.0682 319.536 45.1591 321.876 44.5455C324.24 43.9318 326.717 43.5 329.308 43.25C332.354 42.9318 334.808 42.6364 336.672 42.3636C338.536 42.0682 339.888 41.6364 340.729 41.0682C341.57 40.5 341.99 39.6591 341.99 38.5455V38.3409C341.99 36.1818 341.308 34.5114 339.945 33.3295C338.604 32.1477 336.695 31.5568 334.217 31.5568C331.604 31.5568 329.524 32.1364 327.979 33.2955C326.433 34.4318 325.411 35.8636 324.911 37.5909L311.479 36.5C312.161 33.3182 313.501 30.5682 315.501 28.25C317.501 25.9091 320.081 24.1136 323.24 22.8636C326.422 21.5909 330.104 20.9545 334.286 20.9545C337.195 20.9545 339.979 21.2955 342.638 21.9773C345.32 22.6591 347.695 23.7159 349.763 25.1477C351.854 26.5795 353.501 28.4205 354.706 30.6705C355.911 32.8977 356.513 35.5682 356.513 38.6818V74H342.74V66.7386H342.331C341.49 68.375 340.365 69.8182 338.956 71.0682C337.547 72.2955 335.854 73.2614 333.876 73.9659C331.899 74.6477 329.615 74.9886 327.024 74.9886ZM331.183 64.9659C333.32 64.9659 335.206 64.5455 336.842 63.7045C338.479 62.8409 339.763 61.6818 340.695 60.2273C341.626 58.7727 342.092 57.125 342.092 55.2841V49.7273C341.638 50.0227 341.013 50.2955 340.217 50.5455C339.445 50.7727 338.57 50.9886 337.592 51.1932C336.615 51.375 335.638 51.5455 334.661 51.7045C333.683 51.8409 332.797 51.9659 332.001 52.0795C330.297 52.3295 328.808 52.7273 327.536 53.2727C326.263 53.8182 325.274 54.5568 324.57 55.4886C323.865 56.3977 323.513 57.5341 323.513 58.8977C323.513 60.875 324.229 62.3864 325.661 63.4318C327.115 64.4545 328.956 64.9659 331.183 64.9659ZM384.195 74.8523C380.218 74.8523 376.616 73.8295 373.388 71.7841C370.184 69.7159 367.638 66.6818 365.752 62.6818C363.888 58.6591 362.957 53.7273 362.957 47.8864C362.957 41.8864 363.923 36.8977 365.854 32.9205C367.786 28.9205 370.354 25.9318 373.559 23.9545C376.786 21.9545 380.32 20.9545 384.161 20.9545C387.093 20.9545 389.536 21.4545 391.491 22.4545C393.468 23.4318 395.059 24.6591 396.263 26.1364C397.491 27.5909 398.423 29.0227 399.059 30.4318H399.502V4.18182H413.991V74H399.673V65.6136H399.059C398.377 67.0682 397.411 68.5114 396.161 69.9432C394.934 71.3523 393.332 72.5227 391.354 73.4545C389.4 74.3864 387.013 74.8523 384.195 74.8523ZM388.798 63.2955C391.138 63.2955 393.116 62.6591 394.729 61.3864C396.366 60.0909 397.616 58.2841 398.479 55.9659C399.366 53.6477 399.809 50.9318 399.809 47.8182C399.809 44.7045 399.377 42 398.513 39.7045C397.65 37.4091 396.4 35.6364 394.763 34.3864C393.127 33.1364 391.138 32.5114 388.798 32.5114C386.411 32.5114 384.4 33.1591 382.763 34.4545C381.127 35.75 379.888 37.5455 379.048 39.8409C378.207 42.1364 377.786 44.7955 377.786 47.8182C377.786 50.8636 378.207 53.5568 379.048 55.8977C379.911 58.2159 381.15 60.0341 382.763 61.3523C384.4 62.6477 386.411 63.2955 388.798 63.2955ZM446.915 75.0227C441.528 75.0227 436.892 73.9318 433.006 71.75C429.142 69.5455 426.165 66.4318 424.074 62.4091C421.983 58.3636 420.937 53.5795 420.937 48.0568C420.937 42.6705 421.983 37.9432 424.074 33.875C426.165 29.8068 429.108 26.6364 432.903 24.3636C436.722 22.0909 441.199 20.9545 446.335 20.9545C449.79 20.9545 453.006 21.5114 455.983 22.625C458.983 23.7159 461.597 25.3636 463.824 27.5682C466.074 29.7727 467.824 32.5455 469.074 35.8864C470.324 39.2045 470.949 43.0909 470.949 47.5455V51.5341H426.733V42.5341H457.278C457.278 40.4432 456.824 38.5909 455.915 36.9773C455.006 35.3636 453.744 34.1023 452.131 33.1932C450.54 32.2614 448.687 31.7955 446.574 31.7955C444.369 31.7955 442.415 32.3068 440.71 33.3295C439.028 34.3295 437.71 35.6818 436.756 37.3864C435.801 39.0682 435.312 40.9432 435.29 43.0114V51.5682C435.29 54.1591 435.767 56.3977 436.722 58.2841C437.699 60.1705 439.074 61.625 440.847 62.6477C442.619 63.6705 444.722 64.1818 447.153 64.1818C448.767 64.1818 450.244 63.9545 451.585 63.5C452.926 63.0455 454.074 62.3636 455.028 61.4545C455.983 60.5455 456.71 59.4318 457.21 58.1136L470.642 59C469.96 62.2273 468.562 65.0455 466.449 67.4545C464.358 69.8409 461.653 71.7045 458.335 73.0455C455.04 74.3636 451.233 75.0227 446.915 75.0227ZM477.546 74V21.6364H492.069V74H477.546ZM484.842 14.8864C482.682 14.8864 480.83 14.1705 479.285 12.7386C477.762 11.2841 477.001 9.54545 477.001 7.52272C477.001 5.52272 477.762 3.80682 479.285 2.375C480.83 0.920452 482.682 0.193178 484.842 0.193178C487.001 0.193178 488.842 0.920452 490.364 2.375C491.91 3.80682 492.682 5.52272 492.682 7.52272C492.682 9.54545 491.91 11.2841 490.364 12.7386C488.842 14.1705 487.001 14.8864 484.842 14.8864ZM500.822 74V21.6364H514.902V30.7727H515.447C516.402 27.5227 518.004 25.0682 520.254 23.4091C522.504 21.7273 525.095 20.8864 528.027 20.8864C528.754 20.8864 529.538 20.9318 530.379 21.0227C531.22 21.1136 531.959 21.2386 532.595 21.3977V34.2841C531.913 34.0795 530.97 33.8977 529.765 33.7386C528.561 33.5795 527.459 33.5 526.459 33.5C524.322 33.5 522.413 33.9659 520.731 34.8977C519.072 35.8068 517.754 37.0795 516.777 38.7159C515.822 40.3523 515.345 42.2386 515.345 44.375V74H500.822ZM550.655 74.9886C547.314 74.9886 544.337 74.4091 541.724 73.25C539.11 72.0682 537.042 70.3295 535.519 68.0341C534.019 65.7159 533.269 62.8295 533.269 59.375C533.269 56.4659 533.803 54.0227 534.871 52.0455C535.939 50.0682 537.394 48.4773 539.235 47.2727C541.076 46.0682 543.167 45.1591 545.508 44.5455C547.871 43.9318 550.349 43.5 552.939 43.25C555.985 42.9318 558.439 42.6364 560.303 42.3636C562.167 42.0682 563.519 41.6364 564.36 41.0682C565.201 40.5 565.621 39.6591 565.621 38.5455V38.3409C565.621 36.1818 564.939 34.5114 563.576 33.3295C562.235 32.1477 560.326 31.5568 557.849 31.5568C555.235 31.5568 553.155 32.1364 551.61 33.2955C550.064 34.4318 549.042 35.8636 548.542 37.5909L535.11 36.5C535.792 33.3182 537.133 30.5682 539.133 28.25C541.133 25.9091 543.712 24.1136 546.871 22.8636C550.053 21.5909 553.735 20.9545 557.917 20.9545C560.826 20.9545 563.61 21.2955 566.269 21.9773C568.951 22.6591 571.326 23.7159 573.394 25.1477C575.485 26.5795 577.133 28.4205 578.337 30.6705C579.542 32.8977 580.144 35.5682 580.144 38.6818V74H566.371V66.7386H565.962C565.121 68.375 563.996 69.8182 562.587 71.0682C561.178 72.2955 559.485 73.2614 557.508 73.9659C555.53 74.6477 553.246 74.9886 550.655 74.9886ZM554.814 64.9659C556.951 64.9659 558.837 64.5455 560.474 63.7045C562.11 62.8409 563.394 61.6818 564.326 60.2273C565.258 58.7727 565.724 57.125 565.724 55.2841V49.7273C565.269 50.0227 564.644 50.2955 563.849 50.5455C563.076 50.7727 562.201 50.9886 561.224 51.1932C560.246 51.375 559.269 51.5455 558.292 51.7045C557.314 51.8409 556.428 51.9659 555.633 52.0795C553.928 52.3295 552.439 52.7273 551.167 53.2727C549.894 53.8182 548.905 54.5568 548.201 55.4886C547.496 56.3977 547.144 57.5341 547.144 58.8977C547.144 60.875 547.86 62.3864 549.292 63.4318C550.746 64.4545 552.587 64.9659 554.814 64.9659Z"/>
        </mask>
        <path d="M20.1685 74L0.191187 4.18182H16.3162L27.873 52.6932H28.4526L41.2026 4.18182H55.0094L67.7253 52.7955H68.3389L79.8957 4.18182H96.0207L76.0435 74H61.6571L48.3616 28.3523H47.8162L34.5548 74H20.1685ZM119.007 75.0227C113.621 75.0227 108.984 73.9318 105.098 71.75C101.234 69.5455 98.2572 66.4318 96.1663 62.4091C94.0754 58.3636 93.0299 53.5795 93.0299 48.0568C93.0299 42.6705 94.0754 37.9432 96.1663 33.875C98.2572 29.8068 101.2 26.6364 104.996 24.3636C108.814 22.0909 113.291 20.9545 118.428 20.9545C121.882 20.9545 125.098 21.5114 128.075 22.625C131.075 23.7159 133.689 25.3636 135.916 27.5682C138.166 29.7727 139.916 32.5455 141.166 35.8864C142.416 39.2045 143.041 43.0909 143.041 47.5455V51.5341H98.8254V42.5341H129.371C129.371 40.4432 128.916 38.5909 128.007 36.9773C127.098 35.3636 125.837 34.1023 124.223 33.1932C122.632 32.2614 120.78 31.7955 118.666 31.7955C116.462 31.7955 114.507 32.3068 112.803 33.3295C111.121 34.3295 109.803 35.6818 108.848 37.3864C107.894 39.0682 107.405 40.9432 107.382 43.0114V51.5682C107.382 54.1591 107.859 56.3977 108.814 58.2841C109.791 60.1705 111.166 61.625 112.939 62.6477C114.712 63.6705 116.814 64.1818 119.246 64.1818C120.859 64.1818 122.337 63.9545 123.678 63.5C125.019 63.0455 126.166 62.3636 127.121 61.4545C128.075 60.5455 128.803 59.4318 129.303 58.1136L142.734 59C142.053 62.2273 140.655 65.0455 138.541 67.4545C136.45 69.8409 133.746 71.7045 130.428 73.0455C127.132 74.3636 123.325 75.0227 119.007 75.0227ZM149.911 74V4.18182H164.434V30.4318H164.877C165.514 29.0227 166.434 27.5909 167.639 26.1364C168.866 24.6591 170.457 23.4318 172.411 22.4545C174.389 21.4545 176.843 20.9545 179.775 20.9545C183.593 20.9545 187.116 21.9545 190.343 23.9545C193.57 25.9318 196.15 28.9205 198.082 32.9205C200.014 36.8977 200.979 41.8864 200.979 47.8864C200.979 53.7273 200.036 58.6591 198.15 62.6818C196.286 66.6818 193.741 69.7159 190.514 71.7841C187.309 73.8295 183.718 74.8523 179.741 74.8523C176.923 74.8523 174.525 74.3864 172.548 73.4545C170.593 72.5227 168.991 71.3523 167.741 69.9432C166.491 68.5114 165.536 67.0682 164.877 65.6136H164.229V74H149.911ZM164.127 47.8182C164.127 50.9318 164.559 53.6477 165.423 55.9659C166.286 58.2841 167.536 60.0909 169.173 61.3864C170.809 62.6591 172.798 63.2955 175.139 63.2955C177.502 63.2955 179.502 62.6477 181.139 61.3523C182.775 60.0341 184.014 58.2159 184.854 55.8977C185.718 53.5568 186.15 50.8636 186.15 47.8182C186.15 44.7955 185.729 42.1364 184.889 39.8409C184.048 37.5455 182.809 35.75 181.173 34.4545C179.536 33.1591 177.525 32.5114 175.139 32.5114C172.775 32.5114 170.775 33.1364 169.139 34.3864C167.525 35.6364 166.286 37.4091 165.423 39.7045C164.559 42 164.127 44.7045 164.127 47.8182ZM227.401 4.18182H245.606L264.833 51.0909H265.651L284.879 4.18182H303.083V74H288.765V28.5568H288.185L270.117 73.6591H260.367L242.299 28.3864H241.719V74H227.401V4.18182ZM327.024 74.9886C323.683 74.9886 320.706 74.4091 318.092 73.25C315.479 72.0682 313.411 70.3295 311.888 68.0341C310.388 65.7159 309.638 62.8295 309.638 59.375C309.638 56.4659 310.172 54.0227 311.24 52.0455C312.308 50.0682 313.763 48.4773 315.604 47.2727C317.445 46.0682 319.536 45.1591 321.876 44.5455C324.24 43.9318 326.717 43.5 329.308 43.25C332.354 42.9318 334.808 42.6364 336.672 42.3636C338.536 42.0682 339.888 41.6364 340.729 41.0682C341.57 40.5 341.99 39.6591 341.99 38.5455V38.3409C341.99 36.1818 341.308 34.5114 339.945 33.3295C338.604 32.1477 336.695 31.5568 334.217 31.5568C331.604 31.5568 329.524 32.1364 327.979 33.2955C326.433 34.4318 325.411 35.8636 324.911 37.5909L311.479 36.5C312.161 33.3182 313.501 30.5682 315.501 28.25C317.501 25.9091 320.081 24.1136 323.24 22.8636C326.422 21.5909 330.104 20.9545 334.286 20.9545C337.195 20.9545 339.979 21.2955 342.638 21.9773C345.32 22.6591 347.695 23.7159 349.763 25.1477C351.854 26.5795 353.501 28.4205 354.706 30.6705C355.911 32.8977 356.513 35.5682 356.513 38.6818V74H342.74V66.7386H342.331C341.49 68.375 340.365 69.8182 338.956 71.0682C337.547 72.2955 335.854 73.2614 333.876 73.9659C331.899 74.6477 329.615 74.9886 327.024 74.9886ZM331.183 64.9659C333.32 64.9659 335.206 64.5455 336.842 63.7045C338.479 62.8409 339.763 61.6818 340.695 60.2273C341.626 58.7727 342.092 57.125 342.092 55.2841V49.7273C341.638 50.0227 341.013 50.2955 340.217 50.5455C339.445 50.7727 338.57 50.9886 337.592 51.1932C336.615 51.375 335.638 51.5455 334.661 51.7045C333.683 51.8409 332.797 51.9659 332.001 52.0795C330.297 52.3295 328.808 52.7273 327.536 53.2727C326.263 53.8182 325.274 54.5568 324.57 55.4886C323.865 56.3977 323.513 57.5341 323.513 58.8977C323.513 60.875 324.229 62.3864 325.661 63.4318C327.115 64.4545 328.956 64.9659 331.183 64.9659ZM384.195 74.8523C380.218 74.8523 376.616 73.8295 373.388 71.7841C370.184 69.7159 367.638 66.6818 365.752 62.6818C363.888 58.6591 362.957 53.7273 362.957 47.8864C362.957 41.8864 363.923 36.8977 365.854 32.9205C367.786 28.9205 370.354 25.9318 373.559 23.9545C376.786 21.9545 380.32 20.9545 384.161 20.9545C387.093 20.9545 389.536 21.4545 391.491 22.4545C393.468 23.4318 395.059 24.6591 396.263 26.1364C397.491 27.5909 398.423 29.0227 399.059 30.4318H399.502V4.18182H413.991V74H399.673V65.6136H399.059C398.377 67.0682 397.411 68.5114 396.161 69.9432C394.934 71.3523 393.332 72.5227 391.354 73.4545C389.4 74.3864 387.013 74.8523 384.195 74.8523ZM388.798 63.2955C391.138 63.2955 393.116 62.6591 394.729 61.3864C396.366 60.0909 397.616 58.2841 398.479 55.9659C399.366 53.6477 399.809 50.9318 399.809 47.8182C399.809 44.7045 399.377 42 398.513 39.7045C397.65 37.4091 396.4 35.6364 394.763 34.3864C393.127 33.1364 391.138 32.5114 388.798 32.5114C386.411 32.5114 384.4 33.1591 382.763 34.4545C381.127 35.75 379.888 37.5455 379.048 39.8409C378.207 42.1364 377.786 44.7955 377.786 47.8182C377.786 50.8636 378.207 53.5568 379.048 55.8977C379.911 58.2159 381.15 60.0341 382.763 61.3523C384.4 62.6477 386.411 63.2955 388.798 63.2955ZM446.915 75.0227C441.528 75.0227 436.892 73.9318 433.006 71.75C429.142 69.5455 426.165 66.4318 424.074 62.4091C421.983 58.3636 420.937 53.5795 420.937 48.0568C420.937 42.6705 421.983 37.9432 424.074 33.875C426.165 29.8068 429.108 26.6364 432.903 24.3636C436.722 22.0909 441.199 20.9545 446.335 20.9545C449.79 20.9545 453.006 21.5114 455.983 22.625C458.983 23.7159 461.597 25.3636 463.824 27.5682C466.074 29.7727 467.824 32.5455 469.074 35.8864C470.324 39.2045 470.949 43.0909 470.949 47.5455V51.5341H426.733V42.5341H457.278C457.278 40.4432 456.824 38.5909 455.915 36.9773C455.006 35.3636 453.744 34.1023 452.131 33.1932C450.54 32.2614 448.687 31.7955 446.574 31.7955C444.369 31.7955 442.415 32.3068 440.71 33.3295C439.028 34.3295 437.71 35.6818 436.756 37.3864C435.801 39.0682 435.312 40.9432 435.29 43.0114V51.5682C435.29 54.1591 435.767 56.3977 436.722 58.2841C437.699 60.1705 439.074 61.625 440.847 62.6477C442.619 63.6705 444.722 64.1818 447.153 64.1818C448.767 64.1818 450.244 63.9545 451.585 63.5C452.926 63.0455 454.074 62.3636 455.028 61.4545C455.983 60.5455 456.71 59.4318 457.21 58.1136L470.642 59C469.96 62.2273 468.562 65.0455 466.449 67.4545C464.358 69.8409 461.653 71.7045 458.335 73.0455C455.04 74.3636 451.233 75.0227 446.915 75.0227ZM477.546 74V21.6364H492.069V74H477.546ZM484.842 14.8864C482.682 14.8864 480.83 14.1705 479.285 12.7386C477.762 11.2841 477.001 9.54545 477.001 7.52272C477.001 5.52272 477.762 3.80682 479.285 2.375C480.83 0.920452 482.682 0.193178 484.842 0.193178C487.001 0.193178 488.842 0.920452 490.364 2.375C491.91 3.80682 492.682 5.52272 492.682 7.52272C492.682 9.54545 491.91 11.2841 490.364 12.7386C488.842 14.1705 487.001 14.8864 484.842 14.8864ZM500.822 74V21.6364H514.902V30.7727H515.447C516.402 27.5227 518.004 25.0682 520.254 23.4091C522.504 21.7273 525.095 20.8864 528.027 20.8864C528.754 20.8864 529.538 20.9318 530.379 21.0227C531.22 21.1136 531.959 21.2386 532.595 21.3977V34.2841C531.913 34.0795 530.97 33.8977 529.765 33.7386C528.561 33.5795 527.459 33.5 526.459 33.5C524.322 33.5 522.413 33.9659 520.731 34.8977C519.072 35.8068 517.754 37.0795 516.777 38.7159C515.822 40.3523 515.345 42.2386 515.345 44.375V74H500.822ZM550.655 74.9886C547.314 74.9886 544.337 74.4091 541.724 73.25C539.11 72.0682 537.042 70.3295 535.519 68.0341C534.019 65.7159 533.269 62.8295 533.269 59.375C533.269 56.4659 533.803 54.0227 534.871 52.0455C535.939 50.0682 537.394 48.4773 539.235 47.2727C541.076 46.0682 543.167 45.1591 545.508 44.5455C547.871 43.9318 550.349 43.5 552.939 43.25C555.985 42.9318 558.439 42.6364 560.303 42.3636C562.167 42.0682 563.519 41.6364 564.36 41.0682C565.201 40.5 565.621 39.6591 565.621 38.5455V38.3409C565.621 36.1818 564.939 34.5114 563.576 33.3295C562.235 32.1477 560.326 31.5568 557.849 31.5568C555.235 31.5568 553.155 32.1364 551.61 33.2955C550.064 34.4318 549.042 35.8636 548.542 37.5909L535.11 36.5C535.792 33.3182 537.133 30.5682 539.133 28.25C541.133 25.9091 543.712 24.1136 546.871 22.8636C550.053 21.5909 553.735 20.9545 557.917 20.9545C560.826 20.9545 563.61 21.2955 566.269 21.9773C568.951 22.6591 571.326 23.7159 573.394 25.1477C575.485 26.5795 577.133 28.4205 578.337 30.6705C579.542 32.8977 580.144 35.5682 580.144 38.6818V74H566.371V66.7386H565.962C565.121 68.375 563.996 69.8182 562.587 71.0682C561.178 72.2955 559.485 73.2614 557.508 73.9659C555.53 74.6477 553.246 74.9886 550.655 74.9886ZM554.814 64.9659C556.951 64.9659 558.837 64.5455 560.474 63.7045C562.11 62.8409 563.394 61.6818 564.326 60.2273C565.258 58.7727 565.724 57.125 565.724 55.2841V49.7273C565.269 50.0227 564.644 50.2955 563.849 50.5455C563.076 50.7727 562.201 50.9886 561.224 51.1932C560.246 51.375 559.269 51.5455 558.292 51.7045C557.314 51.8409 556.428 51.9659 555.633 52.0795C553.928 52.3295 552.439 52.7273 551.167 53.2727C549.894 53.8182 548.905 54.5568 548.201 55.4886C547.496 56.3977 547.144 57.5341 547.144 58.8977C547.144 60.875 547.86 62.3864 549.292 63.4318C550.746 64.4545 552.587 64.9659 554.814 64.9659Z" fill="#FA1010"/>

        <path d="M20.1685 74L19.207 74.2751L19.4145 75H20.1685V74ZM0.191187 4.18182V3.18182H-1.13508L-0.77023 4.45691L0.191187 4.18182ZM16.3162 4.18182L17.289 3.95007L17.1059 3.18182H16.3162V4.18182ZM27.873 52.6932L26.9002 52.9249L27.0833 53.6932H27.873V52.6932ZM28.4526 52.6932V53.6932H29.2237L29.4197 52.9474L28.4526 52.6932ZM41.2026 4.18182V3.18182H40.4314L40.2354 3.92762L41.2026 4.18182ZM55.0094 4.18182L55.9768 3.92876L55.7814 3.18182H55.0094V4.18182ZM67.7253 52.7955L66.7578 53.0485L66.9532 53.7955H67.7253V52.7955ZM68.3389 52.7955V53.7955H69.1291L69.3118 53.0267L68.3389 52.7955ZM79.8957 4.18182V3.18182H79.1056L78.9229 3.95053L79.8957 4.18182ZM96.0207 4.18182L96.9822 4.45691L97.347 3.18182H96.0207V4.18182ZM76.0435 74V75H76.7975L77.0049 74.2751L76.0435 74ZM61.6571 74L60.697 74.2796L60.9068 75H61.6571V74ZM48.3616 28.3523L49.3217 28.0726L49.1119 27.3523H48.3616V28.3523ZM47.8162 28.3523V27.3523H47.0654L46.8559 28.0733L47.8162 28.3523ZM34.5548 74V75H35.3057L35.5151 74.279L34.5548 74ZM21.1299 73.7249L1.1526 3.90672L-0.77023 4.45691L19.207 74.2751L21.1299 73.7249ZM0.191187 5.18182H16.3162V3.18182H0.191187V5.18182ZM15.3434 4.41356L26.9002 52.9249L28.8458 52.4614L17.289 3.95007L15.3434 4.41356ZM27.873 53.6932H28.4526V51.6932H27.873V53.6932ZM29.4197 52.9474L42.1697 4.43601L40.2354 3.92762L27.4854 52.439L29.4197 52.9474ZM41.2026 5.18182H55.0094V3.18182H41.2026V5.18182ZM54.0419 4.43487L66.7578 53.0485L68.6927 52.5424L55.9768 3.92876L54.0419 4.43487ZM67.7253 53.7955H68.3389V51.7955H67.7253V53.7955ZM69.3118 53.0267L80.8686 4.4131L78.9229 3.95053L67.366 52.5642L69.3118 53.0267ZM79.8957 5.18182H96.0207V3.18182H79.8957V5.18182ZM95.0593 3.90672L75.082 73.7249L77.0049 74.2751L96.9822 4.45691L95.0593 3.90672ZM76.0435 73H61.6571V75H76.0435V73ZM62.6172 73.7204L49.3217 28.0726L47.4015 28.6319L60.697 74.2796L62.6172 73.7204ZM48.3616 27.3523H47.8162V29.3523H48.3616V27.3523ZM46.8559 28.0733L33.5945 73.721L35.5151 74.279L48.7765 28.6313L46.8559 28.0733ZM34.5548 73H20.1685V75H34.5548V73ZM105.098 71.75L104.603 72.6186L104.609 72.622L105.098 71.75ZM96.1663 62.4091L95.2779 62.8682L95.279 62.8703L96.1663 62.4091ZM96.1663 33.875L95.2769 33.4179L95.2769 33.4179L96.1663 33.875ZM104.996 24.3636L104.484 23.5043L104.482 23.5057L104.996 24.3636ZM128.075 22.625L127.725 23.5617L127.734 23.5648L128.075 22.625ZM135.916 27.5682L135.213 28.2789L135.216 28.2825L135.916 27.5682ZM141.166 35.8864L140.23 36.2368L140.231 36.2389L141.166 35.8864ZM143.041 51.5341V52.5341H144.041V51.5341H143.041ZM98.8254 51.5341H97.8254V52.5341H98.8254V51.5341ZM98.8254 42.5341V41.5341H97.8254V42.5341H98.8254ZM129.371 42.5341V43.5341H130.371V42.5341H129.371ZM128.007 36.9773L127.136 37.4681L127.136 37.4681L128.007 36.9773ZM124.223 33.1932L123.718 34.0561L123.725 34.0603L123.732 34.0644L124.223 33.1932ZM112.803 33.3295L113.314 34.1891L113.317 34.187L112.803 33.3295ZM108.848 37.3864L109.718 37.88L109.721 37.875L108.848 37.3864ZM107.382 43.0114L106.382 43.0004V43.0114H107.382ZM108.814 58.2841L107.922 58.7356L107.926 58.7441L108.814 58.2841ZM123.678 63.5L123.357 62.5529L123.357 62.5529L123.678 63.5ZM127.121 61.4545L126.431 60.7304L126.431 60.7304L127.121 61.4545ZM129.303 58.1136L129.369 57.1158L128.63 57.0671L128.368 57.759L129.303 58.1136ZM142.734 59L143.713 59.2067L143.951 58.0781L142.8 58.0022L142.734 59ZM138.541 67.4545L137.79 66.795L137.789 66.7955L138.541 67.4545ZM130.428 73.0455L130.799 73.9739L130.802 73.9726L130.428 73.0455ZM119.007 74.0227C113.757 74.0227 109.296 72.96 105.588 70.878L104.609 72.622C108.673 74.9036 113.485 76.0227 119.007 76.0227V74.0227ZM105.594 70.8814C101.9 68.7741 99.0576 65.8035 97.0536 61.9479L95.279 62.8703C97.4568 67.0602 100.569 70.3168 104.603 72.6186L105.594 70.8814ZM97.0547 61.9499C95.0511 58.0735 94.0299 53.4534 94.0299 48.0568H92.0299C92.0299 53.7057 93.0997 58.6537 95.2779 62.8682L97.0547 61.9499ZM94.0299 48.0568C94.0299 42.8013 95.0493 38.2358 97.0557 34.3321L95.2769 33.4179C93.1014 37.6506 92.0299 42.5396 92.0299 48.0568H94.0299ZM97.0557 34.3321C99.0643 30.4241 101.88 27.395 105.51 25.2216L104.482 23.5057C100.521 25.8777 97.4501 29.1896 95.2769 33.4179L97.0557 34.3321ZM105.507 25.2229C109.148 23.0559 113.443 21.9545 118.428 21.9545V19.9545C113.14 19.9545 108.48 21.126 104.484 23.5043L105.507 25.2229ZM118.428 21.9545C121.773 21.9545 124.869 22.4934 127.725 23.5616L128.426 21.6884C125.327 20.5293 121.991 19.9545 118.428 19.9545V21.9545ZM127.734 23.5648C130.601 24.6073 133.09 26.1779 135.213 28.2789L136.62 26.8575C134.288 24.5494 131.55 22.8245 128.417 21.6852L127.734 23.5648ZM135.216 28.2825C137.349 30.3717 139.024 33.0148 140.23 36.2368L142.103 35.5359C140.808 32.0761 138.984 29.1737 136.616 26.8539L135.216 28.2825ZM140.231 36.2389C141.429 39.4196 142.041 43.1817 142.041 47.5455H144.041C144.041 43.0001 143.404 38.9894 142.102 35.5338L140.231 36.2389ZM142.041 47.5455V51.5341H144.041V47.5455H142.041ZM143.041 50.5341H98.8254V52.5341H143.041V50.5341ZM99.8254 51.5341V42.5341H97.8254V51.5341H99.8254ZM98.8254 43.5341H129.371V41.5341H98.8254V43.5341ZM130.371 42.5341C130.371 40.2938 129.882 38.2684 128.878 36.4864L127.136 37.4681C127.95 38.9134 128.371 40.5926 128.371 42.5341H130.371ZM128.878 36.4864C127.88 34.7136 126.487 33.3207 124.714 32.3219L123.732 34.0644C125.187 34.8838 126.317 36.0136 127.136 37.4681L128.878 36.4864ZM124.729 32.3303C122.963 31.2962 120.931 30.7955 118.666 30.7955V32.7955C120.629 32.7955 122.301 33.2265 123.718 34.0561L124.729 32.3303ZM118.666 30.7955C116.301 30.7955 114.165 31.3461 112.288 32.472L113.317 34.187C114.85 33.2675 116.623 32.7955 118.666 32.7955V30.7955ZM112.292 32.47C110.459 33.5596 109.016 35.0397 107.976 36.8978L109.721 37.875C110.589 36.3239 111.783 35.0995 113.314 34.1891L112.292 32.47ZM107.978 36.8928C106.935 38.732 106.407 40.775 106.382 43.0004L108.382 43.0224C108.403 41.1113 108.853 39.4043 109.718 37.88L107.978 36.8928ZM106.382 43.0114V51.5682H108.382V43.0114H106.382ZM106.382 51.5682C106.382 54.2811 106.882 56.6812 107.922 58.7356L109.706 57.8326C108.837 56.1143 108.382 54.037 108.382 51.5682H106.382ZM107.926 58.7441C108.988 60.7934 110.495 62.3919 112.439 63.5139L113.439 61.7815C111.838 60.8581 110.595 59.5475 109.702 57.8241L107.926 58.7441ZM112.439 63.5139C114.39 64.6395 116.672 65.1818 119.246 65.1818V63.1818C116.956 63.1818 115.033 62.7014 113.439 61.7815L112.439 63.5139ZM119.246 65.1818C120.954 65.1818 122.541 64.9412 123.999 64.4471L123.357 62.5529C122.132 62.9679 120.765 63.1818 119.246 63.1818V65.1818ZM123.999 64.4471C125.467 63.9494 126.743 63.1953 127.811 62.1787L126.431 60.7304C125.59 61.532 124.57 62.1415 123.357 62.5529L123.999 64.4471ZM127.811 62.1787C128.881 61.1593 129.688 59.9165 130.238 58.4683L128.368 57.759C127.917 58.9471 127.27 59.9316 126.431 60.7304L127.811 62.1787ZM129.237 59.1115L142.669 59.9978L142.8 58.0022L129.369 57.1158L129.237 59.1115ZM141.756 58.7933C141.109 61.8578 139.787 64.5188 137.79 66.795L139.293 68.1141C141.523 65.5721 142.997 62.5967 143.713 59.2067L141.756 58.7933ZM137.789 66.7955C135.814 69.0499 133.245 70.8284 130.053 72.1183L130.802 73.9726C134.247 72.5807 137.087 70.6319 139.293 68.1136L137.789 66.7955ZM130.056 72.117C126.902 73.3789 123.225 74.0227 119.007 74.0227V76.0227C123.426 76.0227 127.363 75.3484 130.799 73.9739L130.056 72.117ZM149.911 74H148.911V75H149.911V74ZM149.911 4.18182V3.18182H148.911V4.18182H149.911ZM164.434 4.18182H165.434V3.18182H164.434V4.18182ZM164.434 30.4318H163.434V31.4318H164.434V30.4318ZM164.877 30.4318V31.4318H165.523L165.789 30.8434L164.877 30.4318ZM167.639 26.1364L166.869 25.4973L166.868 25.4985L167.639 26.1364ZM172.411 22.4545L172.859 23.349L172.863 23.3469L172.411 22.4545ZM190.343 23.9545L189.816 24.8046L189.821 24.8072L190.343 23.9545ZM198.082 32.9205L197.181 33.3553L197.182 33.3574L198.082 32.9205ZM198.15 62.6818L197.245 62.2573L197.244 62.2595L198.15 62.6818ZM190.514 71.7841L191.052 72.627L191.053 72.626L190.514 71.7841ZM172.548 73.4545L172.117 74.3572L172.121 74.3591L172.548 73.4545ZM167.741 69.9432L166.988 70.6009L166.993 70.6068L167.741 69.9432ZM164.877 65.6136L165.788 65.2009L165.522 64.6136H164.877V65.6136ZM164.229 65.6136V64.6136H163.229V65.6136H164.229ZM164.229 74V75H165.229V74H164.229ZM169.173 61.3864L168.552 62.1704L168.559 62.1757L169.173 61.3864ZM181.139 61.3523L181.759 62.1363L181.766 62.131L181.139 61.3523ZM184.854 55.8977L183.916 55.5516L183.914 55.5567L184.854 55.8977ZM184.889 39.8409L185.828 39.4969L185.828 39.4969L184.889 39.8409ZM181.173 34.4545L181.793 33.6705L181.793 33.6705L181.173 34.4545ZM169.139 34.3864L168.532 33.5917L168.526 33.5958L169.139 34.3864ZM165.423 39.7045L164.487 39.3524L164.487 39.3524L165.423 39.7045ZM150.911 74V4.18182H148.911V74H150.911ZM149.911 5.18182H164.434V3.18182H149.911V5.18182ZM163.434 4.18182V30.4318H165.434V4.18182H163.434ZM164.434 31.4318H164.877V29.4318H164.434V31.4318ZM165.789 30.8434C166.381 29.5313 167.249 28.1745 168.409 26.7742L166.868 25.4985C165.619 27.0073 164.646 28.5141 163.966 30.0202L165.789 30.8434ZM168.408 26.7754C169.535 25.4183 171.011 24.2728 172.859 23.349L171.964 21.5601C169.903 22.5908 168.197 23.8998 166.869 25.4973L168.408 26.7754ZM172.863 23.3469C174.662 22.4368 176.951 21.9545 179.775 21.9545V19.9545C176.735 19.9545 174.115 20.4723 171.96 21.5622L172.863 23.3469ZM179.775 21.9545C183.408 21.9545 186.748 22.9032 189.816 24.8046L190.87 23.1045C187.483 21.0059 183.778 19.9545 179.775 19.9545V21.9545ZM189.821 24.8072C192.858 26.668 195.318 29.4975 197.181 33.3553L198.982 32.4856C196.982 28.3435 194.283 25.1956 190.866 23.1019L189.821 24.8072ZM197.182 33.3574C199.029 37.1589 199.979 41.9865 199.979 47.8864H201.979C201.979 41.7862 200.998 36.6366 198.981 32.4835L197.182 33.3574ZM199.979 47.8864C199.979 53.6247 199.052 58.4023 197.245 62.2573L199.055 63.1064C201.02 58.9159 201.979 53.8299 201.979 47.8864H199.979ZM197.244 62.2595C195.448 66.1142 193.019 68.991 189.974 70.9421L191.053 72.626C194.463 70.4408 197.125 67.2494 199.056 63.1041L197.244 62.2595ZM189.976 70.9412C186.939 72.8792 183.537 73.8523 179.741 73.8523V75.8523C183.9 75.8523 187.679 74.7799 191.052 72.627L189.976 70.9412ZM179.741 73.8523C177.029 73.8523 174.785 73.4035 172.974 72.55L172.121 74.3591C174.265 75.3692 176.816 75.8523 179.741 75.8523V73.8523ZM172.978 72.5519C171.126 71.6691 169.638 70.5746 168.489 69.2796L166.993 70.6068C168.344 72.1299 170.06 73.3763 172.117 74.3572L172.978 72.5519ZM168.494 69.2855C167.297 67.9137 166.4 66.5515 165.788 65.2009L163.966 66.0264C164.673 67.5848 165.685 69.109 166.988 70.6008L168.494 69.2855ZM164.877 64.6136H164.229V66.6136H164.877V64.6136ZM163.229 65.6136V74H165.229V65.6136H163.229ZM164.229 73H149.911V75H164.229V73ZM163.127 47.8182C163.127 51.0215 163.571 53.8604 164.486 56.315L166.36 55.6168C165.547 53.435 165.127 50.8422 165.127 47.8182H163.127ZM164.486 56.315C165.401 58.7723 166.748 60.7421 168.552 62.1704L169.793 60.6023C168.325 59.4397 167.172 57.7958 166.36 55.6168L164.486 56.315ZM168.559 62.1757C170.393 63.6024 172.606 64.2955 175.139 64.2955V62.2955C172.99 62.2955 171.225 61.7157 169.787 60.597L168.559 62.1757ZM175.139 64.2955C177.696 64.2955 179.923 63.59 181.759 62.1363L180.518 60.5682C179.081 61.7055 177.308 62.2955 175.139 62.2955V64.2955ZM181.766 62.131C183.568 60.6796 184.902 58.6985 185.795 56.2387L183.914 55.5567C183.125 57.7333 181.982 59.3885 180.511 60.5735L181.766 62.131ZM185.793 56.2439C186.705 53.7707 187.15 50.9565 187.15 47.8182H185.15C185.15 50.7707 184.731 53.3429 183.916 55.5516L185.793 56.2439ZM187.15 47.8182C187.15 44.7048 186.717 41.9252 185.828 39.4969L183.95 40.1849C184.742 42.3476 185.15 44.8861 185.15 47.8182H187.15ZM185.828 39.4969C184.934 37.0583 183.598 35.0989 181.793 33.6705L180.552 35.2386C182.02 36.4011 183.161 38.0326 183.95 40.1849L185.828 39.4969ZM181.793 33.6705C179.955 32.2155 177.716 31.5114 175.139 31.5114V33.5114C177.334 33.5114 179.117 34.1027 180.552 35.2386L181.793 33.6705ZM175.139 31.5114C172.589 31.5114 170.367 32.1893 168.532 33.5917L169.746 35.181C171.182 34.0834 172.96 33.5114 175.139 33.5114V31.5114ZM168.526 33.5958C166.739 34.9802 165.402 36.9188 164.487 39.3524L166.359 40.0567C167.17 37.8993 168.311 36.2926 169.751 35.1769L168.526 33.5958ZM164.487 39.3524C163.571 41.7862 163.127 44.6153 163.127 47.8182H165.127C165.127 44.7938 165.547 42.2138 166.359 40.0567L164.487 39.3524ZM227.401 4.18182V3.18182H226.401V4.18182H227.401ZM245.606 4.18182L246.531 3.80255L246.277 3.18182H245.606V4.18182ZM264.833 51.0909L263.908 51.4702L264.162 52.0909H264.833V51.0909ZM265.651 51.0909V52.0909H266.322L266.577 51.4702L265.651 51.0909ZM284.879 4.18182V3.18182H284.208L283.953 3.80255L284.879 4.18182ZM303.083 4.18182H304.083V3.18182H303.083V4.18182ZM303.083 74V75H304.083V74H303.083ZM288.765 74H287.765V75H288.765V74ZM288.765 28.5568H289.765V27.5568H288.765V28.5568ZM288.185 28.5568V27.5568H287.509L287.257 28.1849L288.185 28.5568ZM270.117 73.6591V74.6591H270.794L271.045 74.031L270.117 73.6591ZM260.367 73.6591L259.438 74.0298L259.69 74.6591H260.367V73.6591ZM242.299 28.3864L243.228 28.0157L242.977 27.3864H242.299V28.3864ZM241.719 28.3864V27.3864H240.719V28.3864H241.719ZM241.719 74V75H242.719V74H241.719ZM227.401 74H226.401V75H227.401V74ZM227.401 5.18182H245.606V3.18182H227.401V5.18182ZM244.681 4.56108L263.908 51.4702L265.758 50.7116L246.531 3.80255L244.681 4.56108ZM264.833 52.0909H265.651V50.0909H264.833V52.0909ZM266.577 51.4702L285.804 4.56108L283.953 3.80255L264.726 50.7116L266.577 51.4702ZM284.879 5.18182H303.083V3.18182H284.879V5.18182ZM302.083 4.18182V74H304.083V4.18182H302.083ZM303.083 73H288.765V75H303.083V73ZM289.765 74V28.5568H287.765V74H289.765ZM288.765 27.5568H288.185V29.5568H288.765V27.5568ZM287.257 28.1849L269.189 73.2872L271.045 74.031L289.114 28.9287L287.257 28.1849ZM270.117 72.6591H260.367V74.6591H270.117V72.6591ZM261.296 73.2884L243.228 28.0157L241.37 28.757L259.438 74.0298L261.296 73.2884ZM242.299 27.3864H241.719V29.3864H242.299V27.3864ZM240.719 28.3864V74H242.719V28.3864H240.719ZM241.719 73H227.401V75H241.719V73ZM228.401 74V4.18182H226.401V74H228.401ZM318.092 73.25L317.68 74.1612L317.687 74.1641L318.092 73.25ZM311.888 68.0341L311.048 68.5774L311.054 68.5869L311.888 68.0341ZM311.24 52.0455L310.36 51.5701L310.36 51.5701L311.24 52.0455ZM315.604 47.2727L315.056 46.4359L315.056 46.4359L315.604 47.2727ZM321.876 44.5455L321.625 43.5775L321.623 43.5781L321.876 44.5455ZM329.308 43.25L329.404 44.2454L329.412 44.2446L329.308 43.25ZM336.672 42.3636L336.817 43.3532L336.828 43.3513L336.672 42.3636ZM340.729 41.0682L340.169 40.2396L340.169 40.2396L340.729 41.0682ZM339.945 33.3295L339.283 34.0798L339.29 34.0852L339.945 33.3295ZM327.979 33.2955L328.571 34.1011L328.579 34.0955L327.979 33.2955ZM324.911 37.5909L324.83 38.5876L325.644 38.6538L325.871 37.869L324.911 37.5909ZM311.479 36.5L310.501 36.2905L310.262 37.4045L311.398 37.4967L311.479 36.5ZM315.501 28.25L316.259 28.9032L316.262 28.8996L315.501 28.25ZM323.24 22.8636L323.608 23.7935L323.611 23.7921L323.24 22.8636ZM342.638 21.9773L342.389 22.9459L342.391 22.9464L342.638 21.9773ZM349.763 25.1477L349.194 25.9699L349.198 25.9728L349.763 25.1477ZM354.706 30.6705L353.824 31.1424L353.826 31.1462L354.706 30.6705ZM356.513 74V75H357.513V74H356.513ZM342.74 74H341.74V75H342.74V74ZM342.74 66.7386H343.74V65.7386H342.74V66.7386ZM342.331 66.7386V65.7386H341.721L341.442 66.2816L342.331 66.7386ZM338.956 71.0682L339.613 71.8223L339.62 71.8163L338.956 71.0682ZM333.876 73.9659L334.202 74.9113L334.212 74.9079L333.876 73.9659ZM336.842 63.7045L337.299 64.594L337.309 64.5889L336.842 63.7045ZM340.695 60.2273L339.853 59.6878L339.853 59.6878L340.695 60.2273ZM342.092 49.7273H343.092V47.8846L341.547 48.8888L342.092 49.7273ZM340.217 50.5455L340.499 51.5048L340.508 51.5022L340.517 51.4994L340.217 50.5455ZM337.592 51.1932L337.775 52.1763L337.786 52.1743L337.797 52.172L337.592 51.1932ZM334.661 51.7045L334.799 52.6949L334.81 52.6934L334.821 52.6916L334.661 51.7045ZM332.001 52.0795L331.86 51.0896L331.856 51.0901L332.001 52.0795ZM327.536 53.2727L327.929 54.1919L327.929 54.1919L327.536 53.2727ZM324.57 55.4886L325.36 56.1013L325.367 56.0917L324.57 55.4886ZM325.661 63.4318L325.071 64.2394L325.078 64.2447L325.085 64.2498L325.661 63.4318ZM327.024 73.9886C323.8 73.9886 320.964 73.4296 318.498 72.3359L317.687 74.1641C320.448 75.3886 323.567 75.9886 327.024 75.9886V73.9886ZM318.504 72.3388C316.055 71.2311 314.135 69.6134 312.721 67.4813L311.054 68.5869C312.686 71.0457 314.903 72.9052 317.68 74.1612L318.504 72.3388ZM312.727 67.4908C311.356 65.3708 310.638 62.6851 310.638 59.375H308.638C308.638 62.974 309.42 66.061 311.048 68.5773L312.727 67.4908ZM310.638 59.375C310.638 56.5844 311.15 54.3153 312.12 52.5208L310.36 51.5701C309.193 53.7302 308.638 56.3474 308.638 59.375H310.638ZM312.12 52.5208C313.111 50.6864 314.452 49.221 316.151 48.1095L315.056 46.4359C313.073 47.7335 311.506 49.4499 310.36 51.5701L312.12 52.5208ZM316.151 48.1095C317.893 46.9697 319.883 46.1018 322.13 45.5128L321.623 43.5781C319.188 44.2164 316.996 45.1667 315.056 46.4359L316.151 48.1095ZM322.128 45.5134C324.437 44.9138 326.862 44.4907 329.404 44.2454L329.212 42.2546C326.572 42.5093 324.043 42.9498 321.625 43.5775L322.128 45.5134ZM329.412 44.2446C332.464 43.9257 334.934 43.6286 336.817 43.3531L336.527 41.3742C334.683 41.6441 332.243 41.9379 329.204 42.2554L329.412 44.2446ZM336.828 43.3513C338.733 43.0493 340.262 42.5901 341.289 41.8968L340.169 40.2396C339.513 40.6826 338.338 41.087 336.515 41.376L336.828 43.3513ZM341.289 41.8968C342.435 41.1223 342.99 39.9532 342.99 38.5455H340.99C340.99 39.365 340.704 39.8777 340.169 40.2396L341.289 41.8968ZM342.99 38.5455V38.3409H340.99V38.5455H342.99ZM342.99 38.3409C342.99 35.9543 342.226 33.983 340.6 32.5739L339.29 34.0852C340.391 35.0397 340.99 36.4093 340.99 38.3409H342.99ZM340.606 32.5793C339.022 31.1837 336.844 30.5568 334.217 30.5568V32.5568C336.545 32.5568 338.185 33.1118 339.283 34.0798L340.606 32.5793ZM334.217 30.5568C331.463 30.5568 329.149 31.1676 327.379 32.4955L328.579 34.0955C329.899 33.1051 331.745 32.5568 334.217 32.5568V30.5568ZM327.386 32.4898C325.676 33.7474 324.515 35.3594 323.95 37.3128L325.871 37.869C326.306 36.3679 327.19 35.1163 328.571 34.1011L327.386 32.4898ZM324.991 36.5942L311.56 35.5033L311.398 37.4967L324.83 38.5876L324.991 36.5942ZM312.456 36.7095C313.105 33.6811 314.375 31.0864 316.259 28.9032L314.744 27.5968C312.628 30.05 311.216 32.9552 310.501 36.2905L312.456 36.7095ZM316.262 28.8996C318.145 26.6951 320.585 24.9898 323.608 23.7935L322.872 21.9338C319.577 23.2375 316.858 25.123 314.741 27.6004L316.262 28.8996ZM323.611 23.7921C326.652 22.5758 330.204 21.9545 334.286 21.9545V19.9545C330.004 19.9545 326.191 20.606 322.869 21.9352L323.611 23.7921ZM334.286 21.9545C337.116 21.9545 339.816 22.2861 342.389 22.9459L342.886 21.0086C340.141 20.3048 337.273 19.9545 334.286 19.9545V21.9545ZM342.391 22.9464C344.969 23.6018 347.233 24.6124 349.194 25.9699L350.332 24.3255C348.156 22.8194 345.67 21.7164 342.884 21.0081L342.391 22.9464ZM349.198 25.9728C351.155 27.3133 352.695 29.0328 353.824 31.1424L355.588 30.1985C354.308 27.8081 352.552 25.8457 350.328 24.3226L349.198 25.9728ZM353.826 31.1462C354.936 33.1974 355.513 35.6966 355.513 38.6818H357.513C357.513 35.4398 356.885 32.598 355.586 30.1947L353.826 31.1462ZM355.513 38.6818V74H357.513V38.6818H355.513ZM356.513 73H342.74V75H356.513V73ZM343.74 74V66.7386H341.74V74H343.74ZM342.74 65.7386H342.331V67.7386H342.74V65.7386ZM341.442 66.2816C340.659 67.8051 339.611 69.1503 338.292 70.3201L339.62 71.8163C341.119 70.4861 342.322 68.9449 343.22 67.1957L341.442 66.2816ZM338.299 70.3141C336.995 71.4497 335.415 72.3562 333.541 73.0239L334.212 74.9079C336.293 74.1665 338.098 73.1412 339.613 71.8223L338.299 70.3141ZM333.55 73.0205C331.7 73.6587 329.53 73.9886 327.024 73.9886V75.9886C329.701 75.9886 332.099 75.6367 334.202 74.9113L333.55 73.0205ZM331.183 65.9659C333.453 65.9659 335.5 65.5184 337.299 64.594L336.385 62.8151C334.911 63.5725 333.186 63.9659 331.183 63.9659V65.9659ZM337.309 64.5889C339.087 63.6506 340.505 62.377 341.537 60.7667L339.853 59.6878C339.021 60.9866 337.87 62.0312 336.376 62.8202L337.309 64.5889ZM341.537 60.7667C342.578 59.1404 343.092 57.3031 343.092 55.2841H341.092C341.092 56.9469 340.674 58.405 339.853 59.6878L341.537 60.7667ZM343.092 55.2841V49.7273H341.092V55.2841H343.092ZM341.547 48.8888C341.198 49.1158 340.668 49.3557 339.918 49.5915L340.517 51.4994C341.358 51.2352 342.077 50.9296 342.637 50.5657L341.547 48.8888ZM339.935 49.5861C339.193 49.8043 338.345 50.0141 337.387 50.2144L337.797 52.172C338.795 51.9632 339.696 51.7411 340.499 51.5048L339.935 49.5861ZM337.409 50.2101C336.44 50.3905 335.47 50.5597 334.5 50.7175L334.821 52.6916C335.806 52.5312 336.791 52.3595 337.775 52.1763L337.409 50.2101ZM334.522 50.7141C333.544 50.8506 332.657 50.9758 331.86 51.0896L332.143 53.0695C332.937 52.956 333.822 52.8312 334.799 52.6949L334.522 50.7141ZM331.856 51.0901C330.086 51.3498 328.51 51.7669 327.142 52.3536L327.929 54.1919C329.106 53.6876 330.508 53.3093 332.147 53.069L331.856 51.0901ZM327.142 52.3536C325.739 52.9548 324.599 53.7914 323.772 54.8855L325.367 56.0917C325.949 55.3223 326.787 54.6816 327.929 54.1919L327.142 52.3536ZM323.779 54.8761C322.915 55.9914 322.513 57.355 322.513 58.8977H324.513C324.513 57.7132 324.815 56.804 325.36 56.1012L323.779 54.8761ZM322.513 58.8977C322.513 61.1517 323.349 62.982 325.071 64.2394L326.25 62.6242C325.109 61.7908 324.513 60.5983 324.513 58.8977H322.513ZM325.085 64.2498C326.747 65.4179 328.802 65.9659 331.183 65.9659V63.9659C329.109 63.9659 327.484 63.4912 326.236 62.6138L325.085 64.2498ZM373.388 71.7841L372.846 72.6243L372.853 72.6287L373.388 71.7841ZM365.752 62.6818L364.845 63.1022L364.848 63.1084L365.752 62.6818ZM365.854 32.9205L366.754 33.3574L366.755 33.3553L365.854 32.9205ZM373.559 23.9545L374.084 24.8056L374.086 24.8046L373.559 23.9545ZM391.491 22.4545L391.035 23.3449L391.048 23.351L391.491 22.4545ZM396.263 26.1364L395.488 26.7683L395.494 26.7748L395.499 26.7812L396.263 26.1364ZM399.059 30.4318L398.148 30.8434L398.413 31.4318H399.059V30.4318ZM399.502 30.4318V31.4318H400.502V30.4318H399.502ZM399.502 4.18182V3.18182H398.502V4.18182H399.502ZM413.991 4.18182H414.991V3.18182H413.991V4.18182ZM413.991 74V75H414.991V74H413.991ZM399.673 74H398.673V75H399.673V74ZM399.673 65.6136H400.673V64.6136H399.673V65.6136ZM399.059 65.6136V64.6136H398.423L398.153 65.1892L399.059 65.6136ZM396.161 69.9432L395.408 69.2855L395.407 69.2864L396.161 69.9432ZM391.354 73.4545L390.928 72.55L390.924 72.5519L391.354 73.4545ZM394.729 61.3864L395.349 62.1715L395.35 62.1704L394.729 61.3864ZM398.479 55.9659L397.545 55.6088L397.542 55.6168L398.479 55.9659ZM398.513 39.7045L399.449 39.3524L399.449 39.3524L398.513 39.7045ZM382.763 34.4545L382.143 33.6705L382.143 33.6705L382.763 34.4545ZM379.048 55.8977L378.106 56.2358L378.11 56.2468L379.048 55.8977ZM382.763 61.3523L382.131 62.1267L382.137 62.1316L382.143 62.1363L382.763 61.3523ZM384.195 73.8523C380.399 73.8523 376.984 72.8791 373.924 70.9395L372.853 72.6287C376.247 74.7799 380.037 75.8523 384.195 75.8523V73.8523ZM373.931 70.9439C370.907 68.9923 368.476 66.1137 366.657 62.2553L364.848 63.1084C366.801 67.2499 369.461 70.4395 372.846 72.6243L373.931 70.9439ZM366.659 62.2615C364.873 58.4053 363.957 53.6261 363.957 47.8864H361.957C361.957 53.8284 362.904 58.9129 364.845 63.1022L366.659 62.2615ZM363.957 47.8864C363.957 41.9865 364.907 37.1589 366.754 33.3574L364.955 32.4836C362.938 36.6366 361.957 41.7862 361.957 47.8864H363.957ZM366.755 33.3553C368.619 29.4957 371.069 26.6659 374.084 24.8056L373.034 23.1035C369.64 25.1977 366.953 28.3452 364.954 32.4856L366.755 33.3553ZM374.086 24.8046C377.153 22.9038 380.504 21.9545 384.161 21.9545V19.9545C380.136 19.9545 376.42 21.0053 373.032 23.1045L374.086 24.8046ZM384.161 21.9545C386.985 21.9545 389.261 22.437 391.035 23.3448L391.946 21.5643C389.811 20.4721 387.201 19.9545 384.161 19.9545V21.9545ZM391.048 23.351C392.917 24.2748 394.387 25.4181 395.488 26.7683L397.038 25.5044C395.73 23.9001 394.019 22.5888 391.934 21.5581L391.048 23.351ZM395.499 26.7812C396.68 28.1808 397.557 29.5353 398.148 30.8434L399.97 30.0202C399.288 28.5102 398.301 27.001 397.028 25.4915L395.499 26.7812ZM399.059 31.4318H399.502V29.4318H399.059V31.4318ZM400.502 30.4318V4.18182H398.502V30.4318H400.502ZM399.502 5.18182H413.991V3.18182H399.502V5.18182ZM412.991 4.18182V74H414.991V4.18182H412.991ZM413.991 73H399.673V75H413.991V73ZM400.673 74V65.6136H398.673V74H400.673ZM399.673 64.6136H399.059V66.6136H399.673V64.6136ZM398.153 65.1892C397.518 66.5455 396.607 67.9115 395.408 69.2855L396.915 70.6008C398.215 69.1112 399.237 67.5908 399.964 66.0381L398.153 65.1892ZM395.407 69.2864C394.285 70.5749 392.801 71.6673 390.928 72.55L391.781 74.3591C393.862 73.3782 395.583 72.1297 396.915 70.6L395.407 69.2864ZM390.924 72.5519C389.138 73.4033 386.908 73.8523 384.195 73.8523V75.8523C387.119 75.8523 389.662 75.3694 391.785 74.3572L390.924 72.5519ZM388.798 64.2955C391.33 64.2955 393.534 63.6025 395.349 62.1715L394.11 60.6012C392.697 61.7157 390.947 62.2955 388.798 62.2955V64.2955ZM395.35 62.1704C397.154 60.7421 398.501 58.7723 399.416 56.315L397.542 55.6168C396.73 57.7958 395.577 59.4397 394.109 60.6023L395.35 62.1704ZM399.413 56.323C400.353 53.8659 400.809 51.024 400.809 47.8182H398.809C398.809 50.8396 398.379 53.4295 397.545 55.6088L399.413 56.323ZM400.809 47.8182C400.809 44.6153 400.365 41.7862 399.449 39.3524L397.578 40.0567C398.389 42.2138 398.809 44.7938 398.809 47.8182H400.809ZM399.449 39.3524C398.533 36.9154 397.182 34.9756 395.371 33.5917L394.156 35.181C395.617 36.2971 396.767 37.9028 397.578 40.0567L399.449 39.3524ZM395.371 33.5917C393.536 32.1906 391.326 31.5114 388.798 31.5114V33.5114C390.951 33.5114 392.718 34.0821 394.156 35.181L395.371 33.5917ZM388.798 31.5114C386.22 31.5114 383.981 32.2155 382.143 33.6705L383.384 35.2386C384.819 34.1027 386.603 33.5114 388.798 33.5114V31.5114ZM382.143 33.6705C380.339 35.0989 379.002 37.0583 378.109 39.4969L379.987 40.1849C380.775 38.0326 381.916 36.4011 383.384 35.2386L382.143 33.6705ZM378.109 39.4969C377.219 41.9252 376.786 44.7048 376.786 47.8182H378.786C378.786 44.8861 379.194 42.3476 379.987 40.1849L378.109 39.4969ZM376.786 47.8182C376.786 50.9539 377.219 53.7652 378.106 56.2358L379.989 55.5597C379.194 53.3484 378.786 50.7734 378.786 47.8182H376.786ZM378.11 56.2468C379.024 58.7 380.356 60.6769 382.131 62.1267L383.396 60.5778C381.944 59.3913 380.798 57.7318 379.985 55.5486L378.11 56.2468ZM382.143 62.1363C383.981 63.5913 386.22 64.2955 388.798 64.2955V62.2955C386.603 62.2955 384.819 61.7041 383.384 60.5682L382.143 62.1363ZM433.006 71.75L432.51 72.6186L432.516 72.622L433.006 71.75ZM424.074 62.4091L423.185 62.8682L423.186 62.8703L424.074 62.4091ZM424.074 33.875L423.184 33.4179L423.184 33.4179L424.074 33.875ZM432.903 24.3636L432.392 23.5043L432.39 23.5057L432.903 24.3636ZM455.983 22.625L455.633 23.5617L455.641 23.5648L455.983 22.625ZM463.824 27.5682L463.12 28.2789L463.124 28.2825L463.824 27.5682ZM469.074 35.8864L468.137 36.2368L468.138 36.2389L469.074 35.8864ZM470.949 51.5341V52.5341H471.949V51.5341H470.949ZM426.733 51.5341H425.733V52.5341H426.733V51.5341ZM426.733 42.5341V41.5341H425.733V42.5341H426.733ZM457.278 42.5341V43.5341H458.278V42.5341H457.278ZM455.915 36.9773L455.043 37.4681L455.043 37.4681L455.915 36.9773ZM452.131 33.1932L451.625 34.0561L451.632 34.0603L451.64 34.0644L452.131 33.1932ZM440.71 33.3295L441.221 34.1891L441.225 34.187L440.71 33.3295ZM436.756 37.3864L437.625 37.88L437.628 37.875L436.756 37.3864ZM435.29 43.0114L434.29 43.0004V43.0114H435.29ZM436.722 58.2841L435.829 58.7356L435.834 58.7441L436.722 58.2841ZM451.585 63.5L451.264 62.5529L451.264 62.5529L451.585 63.5ZM455.028 61.4545L454.339 60.7304L454.339 60.7304L455.028 61.4545ZM457.21 58.1136L457.276 57.1158L456.538 57.0671L456.275 57.759L457.21 58.1136ZM470.642 59L471.62 59.2067L471.859 58.0781L470.708 58.0022L470.642 59ZM466.449 67.4545L465.697 66.795L465.697 66.7955L466.449 67.4545ZM458.335 73.0455L458.707 73.9739L458.71 73.9726L458.335 73.0455ZM446.915 74.0227C441.664 74.0227 437.204 72.96 433.495 70.878L432.516 72.622C436.58 74.9036 441.393 76.0227 446.915 76.0227V74.0227ZM433.501 70.8814C429.808 68.7741 426.965 65.8035 424.961 61.9479L423.186 62.8703C425.364 67.0602 428.476 70.3168 432.51 72.6186L433.501 70.8814ZM424.962 61.9499C422.959 58.0735 421.937 53.4534 421.937 48.0568H419.937C419.937 53.7057 421.007 58.6537 423.185 62.8682L424.962 61.9499ZM421.937 48.0568C421.937 42.8013 422.957 38.2358 424.963 34.3321L423.184 33.4179C421.009 37.6506 419.937 42.5396 419.937 48.0568H421.937ZM424.963 34.3321C426.972 30.4241 429.787 27.395 433.417 25.2216L432.39 23.5057C428.428 25.8777 425.358 29.1896 423.184 33.4179L424.963 34.3321ZM433.415 25.2229C437.056 23.0559 441.35 21.9545 446.335 21.9545V19.9545C441.047 19.9545 436.388 21.126 432.392 23.5043L433.415 25.2229ZM446.335 21.9545C449.68 21.9545 452.777 22.4934 455.633 23.5616L456.333 21.6884C453.235 20.5293 449.899 19.9545 446.335 19.9545V21.9545ZM455.641 23.5648C458.508 24.6073 460.998 26.1779 463.12 28.2789L464.527 26.8575C462.195 24.5494 459.458 22.8245 456.325 21.6852L455.641 23.5648ZM463.124 28.2825C465.256 30.3717 466.932 33.0148 468.137 36.2368L470.01 35.5359C468.716 32.0761 466.891 29.1737 464.524 26.8539L463.124 28.2825ZM468.138 36.2389C469.336 39.4196 469.949 43.1817 469.949 47.5455H471.949C471.949 43.0001 471.311 38.9894 470.01 35.5338L468.138 36.2389ZM469.949 47.5455V51.5341H471.949V47.5455H469.949ZM470.949 50.5341H426.733V52.5341H470.949V50.5341ZM427.733 51.5341V42.5341H425.733V51.5341H427.733ZM426.733 43.5341H457.278V41.5341H426.733V43.5341ZM458.278 42.5341C458.278 40.2938 457.79 38.2684 456.786 36.4864L455.043 37.4681C455.858 38.9134 456.278 40.5926 456.278 42.5341H458.278ZM456.786 36.4864C455.787 34.7136 454.394 33.3207 452.621 32.3219L451.64 34.0644C453.094 34.8838 454.224 36.0136 455.043 37.4681L456.786 36.4864ZM452.636 32.3303C450.871 31.2962 448.839 30.7955 446.574 30.7955V32.7955C448.536 32.7955 450.209 33.2265 451.625 34.0561L452.636 32.3303ZM446.574 30.7955C444.208 30.7955 442.072 31.3461 440.196 32.472L441.225 34.187C442.757 33.2675 444.53 32.7955 446.574 32.7955V30.7955ZM440.199 32.47C438.367 33.5596 436.924 35.0397 435.883 36.8978L437.628 37.875C438.497 36.3239 439.69 35.0995 441.221 34.1891L440.199 32.47ZM435.886 36.8928C434.842 38.732 434.314 40.775 434.29 43.0004L436.29 43.0224C436.311 41.1113 436.76 39.4043 437.625 37.88L435.886 36.8928ZM434.29 43.0114V51.5682H436.29V43.0114H434.29ZM434.29 51.5682C434.29 54.2811 434.79 56.6812 435.829 58.7356L437.614 57.8326C436.744 56.1143 436.29 54.037 436.29 51.5682H434.29ZM435.834 58.7441C436.895 60.7934 438.402 62.3919 440.347 63.5139L441.346 61.7815C439.746 60.8581 438.502 59.5475 437.609 57.8241L435.834 58.7441ZM440.347 63.5139C442.298 64.6395 444.579 65.1818 447.153 65.1818V63.1818C444.864 63.1818 442.941 62.7014 441.346 61.7815L440.347 63.5139ZM447.153 65.1818C448.861 65.1818 450.449 64.9412 451.906 64.4471L451.264 62.5529C450.04 62.9679 448.673 63.1818 447.153 63.1818V65.1818ZM451.906 64.4471C453.374 63.9494 454.651 63.1953 455.718 62.1787L454.339 60.7304C453.497 61.532 452.478 62.1415 451.264 62.5529L451.906 64.4471ZM455.718 62.1787C456.788 61.1593 457.596 59.9165 458.145 58.4683L456.275 57.759C455.824 58.9471 455.177 59.9316 454.339 60.7304L455.718 62.1787ZM457.144 59.1115L470.576 59.9978L470.708 58.0022L457.276 57.1158L457.144 59.1115ZM469.664 58.7933C469.016 61.8578 467.694 64.5188 465.697 66.795L467.2 68.1141C469.431 65.5721 470.904 62.5967 471.62 59.2067L469.664 58.7933ZM465.697 66.7955C463.721 69.0499 461.152 70.8284 457.96 72.1183L458.71 73.9726C462.154 72.5807 464.994 70.6319 467.201 68.1136L465.697 66.7955ZM457.964 72.117C454.809 73.3789 451.132 74.0227 446.915 74.0227V76.0227C451.333 76.0227 455.27 75.3484 458.707 73.9739L457.964 72.117ZM477.546 74H476.546V75H477.546V74ZM477.546 21.6364V20.6364H476.546V21.6364H477.546ZM492.069 21.6364H493.069V20.6364H492.069V21.6364ZM492.069 74V75H493.069V74H492.069ZM479.285 12.7386L478.594 13.4617L478.599 13.467L478.605 13.4722L479.285 12.7386ZM479.285 2.375L479.97 3.10352L479.97 3.1032L479.285 2.375ZM490.364 2.375L489.674 3.09811L489.679 3.10338L489.685 3.10856L490.364 2.375ZM490.364 12.7386L491.049 13.4672L491.05 13.4668L490.364 12.7386ZM478.546 74V21.6364H476.546V74H478.546ZM477.546 22.6364H492.069V20.6364H477.546V22.6364ZM491.069 21.6364V74H493.069V21.6364H491.069ZM492.069 73H477.546V75H492.069V73ZM484.842 13.8864C482.928 13.8864 481.32 13.261 479.964 12.0051L478.605 13.4722C480.34 15.0799 482.437 15.8864 484.842 15.8864V13.8864ZM479.975 12.0155C478.641 10.741 478.001 9.25994 478.001 7.52272H476.001C476.001 9.83097 476.883 11.8272 478.594 13.4617L479.975 12.0155ZM478.001 7.52272C478.001 5.81231 478.638 4.35593 479.97 3.10352L478.6 1.64648C476.886 3.2577 476.001 5.23314 476.001 7.52272H478.001ZM479.97 3.1032C481.326 1.82657 482.932 1.19318 484.842 1.19318V-0.806822C482.433 -0.806822 480.334 0.0143301 478.599 1.6468L479.97 3.1032ZM484.842 1.19318C486.751 1.19318 488.342 1.82622 489.674 3.09811L491.055 1.65189C489.341 0.014684 487.251 -0.806822 484.842 -0.806822V1.19318ZM489.685 3.10856C491.038 4.3625 491.682 5.81749 491.682 7.52272H493.682C493.682 5.22796 492.781 3.25113 491.044 1.64144L489.685 3.10856ZM491.682 7.52272C491.682 9.25483 491.035 10.7344 489.679 12.0104L491.05 13.4668C492.785 11.8338 493.682 9.83608 493.682 7.52272H491.682ZM489.679 12.0101C488.349 13.2613 486.755 13.8864 484.842 13.8864V15.8864C487.246 15.8864 489.334 15.0796 491.049 13.4672L489.679 12.0101ZM500.822 74H499.822V75H500.822V74ZM500.822 21.6364V20.6364H499.822V21.6364H500.822ZM514.902 21.6364H515.902V20.6364H514.902V21.6364ZM514.902 30.7727H513.902V31.7727H514.902V30.7727ZM515.447 30.7727V31.7727H516.196L516.407 31.0545L515.447 30.7727ZM520.254 23.4091L520.848 24.214L520.853 24.2101L520.254 23.4091ZM530.379 21.0227L530.487 20.0285L530.487 20.0285L530.379 21.0227ZM532.595 21.3977H533.595V20.6169L532.838 20.4276L532.595 21.3977ZM532.595 34.2841L532.308 35.2419L533.595 35.6281V34.2841H532.595ZM520.731 34.8977L521.212 35.7747L521.216 35.7724L520.731 34.8977ZM516.777 38.7159L515.918 38.2031L515.913 38.212L516.777 38.7159ZM515.345 74V75H516.345V74H515.345ZM501.822 74V21.6364H499.822V74H501.822ZM500.822 22.6364H514.902V20.6364H500.822V22.6364ZM513.902 21.6364V30.7727H515.902V21.6364H513.902ZM514.902 31.7727H515.447V29.7727H514.902V31.7727ZM516.407 31.0545C517.313 27.9686 518.808 25.7177 520.848 24.2139L519.661 22.6042C517.2 24.4186 515.491 27.0768 514.488 30.4909L516.407 31.0545ZM520.853 24.2101C522.922 22.6634 525.301 21.8864 528.027 21.8864V19.8864C524.889 19.8864 522.086 20.7912 519.655 22.6081L520.853 24.2101ZM528.027 21.8864C528.713 21.8864 529.461 21.9293 530.272 22.0169L530.487 20.0285C529.616 19.9344 528.795 19.8864 528.027 19.8864V21.8864ZM530.272 22.0169C531.079 22.1042 531.771 22.2225 532.353 22.3679L532.838 20.4276C532.146 20.2548 531.361 20.123 530.487 20.0285L530.272 22.0169ZM531.595 21.3977V34.2841H533.595V21.3977H531.595ZM532.882 33.3263C532.126 33.0994 531.123 32.9092 529.896 32.7472L529.635 34.73C530.818 34.8863 531.7 35.0597 532.308 35.2419L532.882 33.3263ZM529.896 32.7472C528.657 32.5836 527.511 32.5 526.459 32.5V34.5C527.407 34.5 528.465 34.5755 529.635 34.73L529.896 32.7472ZM526.459 32.5C524.172 32.5 522.093 33.0002 520.247 34.023L521.216 35.7724C522.734 34.9316 524.473 34.5 526.459 34.5V32.5ZM520.251 34.0208C518.434 35.0161 516.986 36.4151 515.918 38.2032L517.635 39.2286C518.522 37.744 519.71 36.5975 521.212 35.7747L520.251 34.0208ZM515.913 38.212C514.858 40.0201 514.345 42.0847 514.345 44.375H516.345C516.345 42.3926 516.786 40.6844 517.641 39.2198L515.913 38.212ZM514.345 44.375V74H516.345V44.375H514.345ZM515.345 73H500.822V75H515.345V73ZM541.724 73.25L541.312 74.1612L541.318 74.1641L541.724 73.25ZM535.519 68.0341L534.679 68.5774L534.686 68.5869L535.519 68.0341ZM534.871 52.0455L533.991 51.5701L533.991 51.5701L534.871 52.0455ZM539.235 47.2727L538.687 46.4359L538.687 46.4359L539.235 47.2727ZM545.508 44.5455L545.256 43.5775L545.254 43.5781L545.508 44.5455ZM552.939 43.25L553.036 44.2454L553.043 44.2446L552.939 43.25ZM560.303 42.3636L560.448 43.3532L560.46 43.3513L560.303 42.3636ZM564.36 41.0682L563.8 40.2396L563.8 40.2396L564.36 41.0682ZM563.576 33.3295L562.915 34.0798L562.921 34.0852L563.576 33.3295ZM551.61 33.2955L552.202 34.1011L552.21 34.0955L551.61 33.2955ZM548.542 37.5909L548.461 38.5876L549.275 38.6538L549.502 37.869L548.542 37.5909ZM535.11 36.5L534.132 36.2905L533.893 37.4045L535.029 37.4967L535.11 36.5ZM539.133 28.25L539.89 28.9032L539.893 28.8996L539.133 28.25ZM546.871 22.8636L547.239 23.7935L547.243 23.7921L546.871 22.8636ZM566.269 21.9773L566.021 22.9459L566.023 22.9464L566.269 21.9773ZM573.394 25.1477L572.825 25.9699L572.829 25.9728L573.394 25.1477ZM578.337 30.6705L577.456 31.1424L577.458 31.1462L578.337 30.6705ZM580.144 74V75H581.144V74H580.144ZM566.371 74H565.371V75H566.371V74ZM566.371 66.7386H567.371V65.7386H566.371V66.7386ZM565.962 66.7386V65.7386H565.352L565.073 66.2816L565.962 66.7386ZM562.587 71.0682L563.244 71.8223L563.251 71.8163L562.587 71.0682ZM557.508 73.9659L557.834 74.9113L557.843 74.9079L557.508 73.9659ZM560.474 63.7045L560.931 64.594L560.94 64.5889L560.474 63.7045ZM564.326 60.2273L563.484 59.6878L563.484 59.6878L564.326 60.2273ZM565.724 49.7273H566.724V47.8846L565.179 48.8888L565.724 49.7273ZM563.849 50.5455L564.131 51.5048L564.14 51.5022L564.148 51.4994L563.849 50.5455ZM561.224 51.1932L561.406 52.1763L561.417 52.1743L561.428 52.172L561.224 51.1932ZM558.292 51.7045L558.43 52.6949L558.441 52.6934L558.452 52.6916L558.292 51.7045ZM555.633 52.0795L555.491 51.0896L555.488 51.0901L555.633 52.0795ZM551.167 53.2727L551.561 54.1919L551.561 54.1919L551.167 53.2727ZM548.201 55.4886L548.991 56.1013L548.998 56.0917L548.201 55.4886ZM549.292 63.4318L548.702 64.2394L548.709 64.2447L548.717 64.2498L549.292 63.4318ZM550.655 73.9886C547.431 73.9886 544.595 73.4296 542.129 72.3359L541.318 74.1641C544.079 75.3886 547.198 75.9886 550.655 75.9886V73.9886ZM542.136 72.3388C539.686 71.2311 537.767 69.6134 536.352 67.4813L534.686 68.5869C536.317 71.0457 538.534 72.9052 541.312 74.1612L542.136 72.3388ZM536.359 67.4908C534.987 65.3708 534.269 62.6851 534.269 59.375H532.269C532.269 62.974 533.051 66.061 534.679 68.5773L536.359 67.4908ZM534.269 59.375C534.269 56.5844 534.782 54.3153 535.751 52.5208L533.991 51.5701C532.825 53.7302 532.269 56.3474 532.269 59.375H534.269ZM535.751 52.5208C536.742 50.6864 538.084 49.221 539.782 48.1095L538.687 46.4359C536.704 47.7335 535.137 49.4499 533.991 51.5701L535.751 52.5208ZM539.782 48.1095C541.524 46.9697 543.514 46.1018 545.761 45.5128L545.254 43.5781C542.819 44.2164 540.627 45.1667 538.687 46.4359L539.782 48.1095ZM545.759 45.5134C548.068 44.9138 550.494 44.4907 553.036 44.2454L552.843 42.2546C550.204 42.5093 547.674 42.9498 545.256 43.5775L545.759 45.5134ZM553.043 44.2446C556.095 43.9257 558.565 43.6286 560.448 43.3531L560.158 41.3742C558.314 41.6441 555.875 41.9379 552.836 42.2554L553.043 44.2446ZM560.46 43.3513C562.364 43.0493 563.894 42.5901 564.92 41.8968L563.8 40.2396C563.144 40.6826 561.969 41.087 560.147 41.376L560.46 43.3513ZM564.92 41.8968C566.066 41.1223 566.621 39.9532 566.621 38.5455H564.621C564.621 39.365 564.336 39.8777 563.8 40.2396L564.92 41.8968ZM566.621 38.5455V38.3409H564.621V38.5455H566.621ZM566.621 38.3409C566.621 35.9543 565.857 33.983 564.231 32.5739L562.921 34.0852C564.022 35.0397 564.621 36.4093 564.621 38.3409H566.621ZM564.237 32.5793C562.654 31.1837 560.475 30.5568 557.849 30.5568V32.5568C560.176 32.5568 561.816 33.1118 562.915 34.0798L564.237 32.5793ZM557.849 30.5568C555.094 30.5568 552.78 31.1676 551.01 32.4955L552.21 34.0955C553.53 33.1051 555.376 32.5568 557.849 32.5568V30.5568ZM551.018 32.4898C549.307 33.7474 548.147 35.3594 547.581 37.3128L549.502 37.869C549.937 36.3679 550.822 35.1163 552.202 34.1011L551.018 32.4898ZM548.623 36.5942L535.191 35.5033L535.029 37.4967L548.461 38.5876L548.623 36.5942ZM536.088 36.7095C536.737 33.6811 538.006 31.0864 539.89 28.9032L538.375 27.5968C536.259 30.05 534.847 32.9552 534.132 36.2905L536.088 36.7095ZM539.893 28.8996C541.776 26.6951 544.216 24.9898 547.239 23.7935L546.503 21.9338C543.209 23.2375 540.489 25.123 538.372 27.6004L539.893 28.8996ZM547.243 23.7921C550.283 22.5758 553.835 21.9545 557.917 21.9545V19.9545C553.635 19.9545 549.823 20.606 546.5 21.9352L547.243 23.7921ZM557.917 21.9545C560.747 21.9545 563.447 22.2861 566.021 22.9459L566.517 21.0086C563.772 20.3048 560.905 19.9545 557.917 19.9545V21.9545ZM566.023 22.9464C568.6 23.6018 570.864 24.6124 572.825 25.9699L573.963 24.3255C571.788 22.8194 569.301 21.7164 566.515 21.0081L566.023 22.9464ZM572.829 25.9728C574.787 27.3133 576.326 29.0328 577.456 31.1424L579.219 30.1985C577.939 27.8081 576.183 25.8457 573.959 24.3226L572.829 25.9728ZM577.458 31.1462C578.567 33.1974 579.144 35.6966 579.144 38.6818H581.144C581.144 35.4398 580.517 32.598 579.217 30.1947L577.458 31.1462ZM579.144 38.6818V74H581.144V38.6818H579.144ZM580.144 73H566.371V75H580.144V73ZM567.371 74V66.7386H565.371V74H567.371ZM566.371 65.7386H565.962V67.7386H566.371V65.7386ZM565.073 66.2816C564.29 67.8051 563.242 69.1503 561.924 70.3201L563.251 71.8163C564.75 70.4861 565.953 68.9449 566.852 67.1957L565.073 66.2816ZM561.93 70.3141C560.627 71.4497 559.046 72.3562 557.172 73.0239L557.843 74.9079C559.924 74.1665 561.73 73.1412 563.244 71.8223L561.93 70.3141ZM557.182 73.0205C555.331 73.6587 553.161 73.9886 550.655 73.9886V75.9886C553.332 75.9886 555.73 75.6367 557.834 74.9113L557.182 73.0205ZM554.814 65.9659C557.084 65.9659 559.132 65.5184 560.931 64.594L560.016 62.8151C558.543 63.5725 556.818 63.9659 554.814 63.9659V65.9659ZM560.94 64.5889C562.718 63.6506 564.136 62.377 565.168 60.7667L563.484 59.6878C562.652 60.9866 561.502 62.0312 560.007 62.8202L560.94 64.5889ZM565.168 60.7667C566.21 59.1404 566.724 57.3031 566.724 55.2841H564.724C564.724 56.9469 564.306 58.405 563.484 59.6878L565.168 60.7667ZM566.724 55.2841V49.7273H564.724V55.2841H566.724ZM565.179 48.8888C564.829 49.1158 564.299 49.3557 563.549 49.5915L564.148 51.4994C564.989 51.2352 565.709 50.9296 566.269 50.5657L565.179 48.8888ZM563.566 49.5861C562.824 49.8043 561.976 50.0141 561.019 50.2144L561.428 52.172C562.426 51.9632 563.327 51.7411 564.131 51.5048L563.566 49.5861ZM561.041 50.2101C560.071 50.3905 559.101 50.5597 558.131 50.7175L558.452 52.6916C559.437 52.5312 560.422 52.3595 561.406 52.1763L561.041 50.2101ZM558.154 50.7141C557.175 50.8506 556.288 50.9758 555.491 51.0896L555.774 53.0695C556.568 52.956 557.454 52.8312 558.43 52.6949L558.154 50.7141ZM555.488 51.0901C553.717 51.3498 552.142 51.7669 550.773 52.3536L551.561 54.1919C552.737 53.6876 554.139 53.3093 555.778 53.069L555.488 51.0901ZM550.773 52.3536C549.37 52.9548 548.23 53.7914 547.403 54.8855L548.998 56.0917C549.58 55.3223 550.418 54.6816 551.561 54.1919L550.773 52.3536ZM547.41 54.8761C546.546 55.9914 546.144 57.355 546.144 58.8977H548.144C548.144 57.7132 548.447 56.804 548.991 56.1012L547.41 54.8761ZM546.144 58.8977C546.144 61.1517 546.98 62.982 548.702 64.2394L549.881 62.6242C548.74 61.7908 548.144 60.5983 548.144 58.8977H546.144ZM548.717 64.2498C550.378 65.4179 552.434 65.9659 554.814 65.9659V63.9659C552.741 63.9659 551.115 63.4912 549.867 62.6138L548.717 64.2498Z" fill="#8E8585" mask="url(#path-1-outside-1_605_10)"/>
    </g>        
    <defs>
        <filter id="filter0_b_605_10" filterUnits="userSpaceOnUse" color-interpolation-filters="sRGB">
            <feBlend mode="normal" in="SourceGraphic" in2="effect1_backgroundBlur_605_10" />
        </filter>
    </defs>
</svg>
